<svg xmlns="http://www.w3.org/2000/svg" xmlns:xlink="http://www.w3.org/1999/xlink" version="1.1" x="0px" y="0px" viewBox="0 0 90 112.5" enable-background="new 0 0 90 90" xml:space="preserve"><g><path fill="#000000" d="M72.305,24.486l-0.945-0.987c-0.148-0.154-0.378-0.197-0.571-0.105l-1.54,0.73   c-0.256-0.385-0.557-0.723-0.99-0.71c-0.136,0.003-0.474,0.057-0.672,0.496c-0.186,0.413-1.46,1.676-2.339,2.473l-9.083,4.159   c-8.022,1.903-9.711,2.734-10.467,3.261c-0.068,0.013-0.131,0.038-0.188,0.078l-0.685-0.697c0.907-0.393,1.656-1.107,2.127-2.1   c0.554-1.167,0.67-2.555,0.327-3.909c-0.61-2.406-2.583-4.152-4.692-4.152c-0.317,0-0.635,0.04-0.941,0.117   c-1.175,0.297-2.135,1.122-2.705,2.32c-0.554,1.167-0.67,2.556-0.327,3.91c0.298,1.179,0.928,2.195,1.737,2.93   c-0.021,0.051-0.036,0.105-0.037,0.163l-0.034,1.986c-0.792-0.044-2.189,0.235-3.813,2.169l-6.523,4.11l-6.127-7.174l-0.6-0.812   l-1.668-2.009l0.635-2.057l3.601-9.029c0.186,0.038,0.373,0.062,0.562,0.062c1.844,0,3.484-1.689,4.389-4.52   c1.213-3.802-0.01-6.069-1.761-6.629c-0.29-0.093-0.589-0.14-0.889-0.14c-1.844,0-3.485,1.69-4.389,4.521   c-1.07,3.348-0.247,5.503,1.161,6.353l-3.289,8.247c-0.047,0.043-0.087,0.094-0.115,0.155l-1.428,3.048   c-0.132,0.033-0.253,0.103-0.321,0.224l-1.52,2.703c-0.068,0.122-0.069,0.261-0.028,0.391c-0.024,0.03-0.052,0.057-0.069,0.093   l-0.473,1.009c-0.022,0.048-0.037,0.1-0.043,0.152c-0.066,0.559,0.151,0.838,0.344,0.974c0.159,0.111,0.336,0.149,0.505,0.149   c0.307,0,0.583-0.127,0.658-0.165c0.115-0.058,0.202-0.157,0.245-0.278l0.379-1.079l2.282,0.938l8.012,9.718   c0.096,0.116,0.237,0.18,0.383,0.18c0.052,0,0.104-0.008,0.155-0.024l6.867-2.261l4.112,8.173l-1.394,2.241   c-0.044,0.008-0.088,0.016-0.129,0.036c-0.063,0.032-1.547,0.824-2.499,3.692c-0.382,1.149-0.598,1.811-0.694,2.211   c-0.004,0.005-0.009,0.008-0.014,0.014c-0.125,0.12-0.196,0.367-0.157,0.536c0.115,0.502,1.151,1.011,1.58,1.202l-1.585,2.559   L23.133,63.48l-1.419-0.05c-0.227-0.025-0.431,0.14-0.494,0.357l-0.674,2.333l-1.921,4.938c-0.088,0.225,0,0.48,0.208,0.605   l2.963,1.773c0.078,0.047,0.167,0.07,0.255,0.07c0.071,0,0.143-0.016,0.209-0.046c0.149-0.069,0.254-0.208,0.28-0.371l0.379-2.362   c0.001-0.002,0.007-0.007,0.008-0.008c0.004-0.004,0.005-0.01,0.009-0.014l2.428-3.046c0.215,0.029,0.533,0.075,0.931,0.132   c5.653,0.803,9.29,1.223,11.647,1.404l-9.434,2.329l-1.4,0.239c-0.224,0.038-0.394,0.224-0.411,0.45l-0.187,2.421l-0.878,5.226   c-0.04,0.237,0.098,0.47,0.326,0.55l3.26,1.136c0.053,0.019,0.108,0.028,0.163,0.028c0.105,0,0.209-0.034,0.296-0.099   c0.132-0.099,0.207-0.256,0.199-0.421l-0.107-2.389c0.001-0.002,0.005-0.008,0.006-0.01c0.004-0.008,0.004-0.016,0.008-0.023   l1.761-3.475c2.02-0.213,14.558-1.59,15.745-2.846c1.246-1.316,2.474-2.742,2.597-4.413l-0.035-0.003   c0.036-0.198,0.065-0.482,0.1-0.889c0.017-0.006,0.034-0.003,0.051-0.011c0.132-0.063,0.485-0.263,0.641-0.593   c0.048-0.078,0.077-0.167,0.075-0.261v-0.052c0-0.006,0.004-0.01,0.004-0.017c0-0.011-0.005-0.022-0.006-0.032l-0.188-9.658   c-0.001-0.022-0.009-0.04-0.013-0.062c0.052-0.235,0.033-0.558-0.027-1.074c-0.011-0.084-0.02-0.15-0.021-0.181l-0.081-2.92   c-0.023-0.931-0.166-2.04-0.303-3.113c-0.162-1.271-0.33-2.586-0.309-3.633c0.006-0.341,0.189-0.609,0.422-0.949   c0.299-0.439,0.672-0.986,0.602-1.778c-0.094-1.062-0.462-1.608-0.853-2.188c-0.193-0.287-0.394-0.583-0.587-0.979l-0.201-0.413   c0.026-0.035,0.064-0.059,0.081-0.101c0.49-0.572,4.79-2.642,8.778-4.369l9.311-5.628c0.465-0.207,4.545-2.074,5.096-4.034   C72.471,24.795,72.426,24.613,72.305,24.486z M41.261,35.062l0.035-2.093c0.626,0.346,1.306,0.553,2.006,0.553   c0.146,0,0.291-0.011,0.436-0.027l1.227,1.248c-0.734,1.227-1.464,1.888-2.164,1.849c-0.689-0.008-1.306-0.681-1.673-1.222   C41.204,35.283,41.259,35.181,41.261,35.062z M39.836,25.887c0.44-0.927,1.169-1.561,2.052-1.784   c0.229-0.058,0.463-0.087,0.698-0.087c1.661,0,3.23,1.431,3.73,3.404c0.287,1.13,0.193,2.28-0.262,3.238   c-0.44,0.928-1.17,1.561-2.053,1.784c-1.838,0.469-3.856-1.064-4.426-3.315C39.289,27.997,39.381,26.846,39.836,25.887z    M24.641,13.247c0.755-2.363,2.074-3.832,3.444-3.832c0.197,0,0.395,0.031,0.587,0.093c1.539,0.492,1.988,2.655,1.118,5.382   c-0.863,2.702-2.503,4.225-4.031,3.736C24.219,18.136,23.77,15.973,24.641,13.247z M20.153,32.195l0.429,0.702l-0.521,0.68   l-0.646-0.071L20.153,32.195z M22.669,35.131c-0.052-0.063-0.119-0.112-0.194-0.143l-1.707-0.703l0.808-1.056   c0.125-0.163,0.136-0.385,0.029-0.56l-0.462-0.757c0.013-0.022,0.033-0.037,0.043-0.061l1.249,1.503l0.604,0.817l6.428,7.527   c0.098,0.114,0.236,0.174,0.378,0.174c0.091,0,0.182-0.025,0.264-0.076l6.953-4.381c0.044-0.028,0.084-0.063,0.118-0.104   c0.493-0.596,0.948-1.009,1.353-1.292c0.771,0.875-0.291,4.786-1.059,6.38c-0.017,0.006-0.034,0.006-0.05,0.014   c-0.004,0.002-0.007,0.006-0.011,0.008l-6.868,2.262L22.669,35.131z M40.449,54.801c0.031-0.017,0.052-0.043,0.078-0.064   c1.369,0.617,5.56,2.401,8.14,2.401c0.293,0,0.559-0.03,0.804-0.08l0.024,3.39l-2.779,3.32c-0.578-0.39-2.041-1.319-3.642-1.901   l-0.045-1.212c-0.006-0.149-0.078-0.289-0.198-0.379c-0.12-0.089-0.272-0.119-0.419-0.084l-1.718,0.433   c-1.451-0.423-2.321-0.671-2.865-0.804c0.09-0.311,0.263-0.869,0.604-1.895C39.236,55.506,40.415,54.82,40.449,54.801z    M46.901,65.158c0.075-0.094,0.151-0.188,0.196-0.301l2.545-3.04l0.065,3.351C49.338,65.109,48.57,65.07,46.901,65.158z    M21.677,72.211l-1.976-1.184l0.196-0.506c0.476,0.494,0.988,0.768,1.529,0.799c0.035,0.002,0.069,0.002,0.104,0.002   c0.109,0,0.198-0.028,0.296-0.045L21.677,72.211z M25.205,66.641c-0.056-0.008-0.109,0.01-0.163,0.022   c-1.277-1.04-1.336-1.797-1.261-2.146l13.084,0.622c0.185,0.015,0.351-0.081,0.446-0.234l2.22-3.583   c0.337,0.096,0.679,0.193,1.016,0.292c0.083,0.024,0.174,0.026,0.26,0.005l1.254-0.315l0.035,0.938   c0.008,0.208,0.143,0.389,0.341,0.453c1.151,0.378,2.292,1.003,3.054,1.468c-0.299,0.456-0.891,1.358-0.933,1.422   c-0.002,0.003-0.003,0.005-0.005,0.007c-0.741,1.133-1.445,1.622-2.611,2.434l-0.246,0.172c-0.422,0.231-2.968,0.357-15.26-1.387   C25.788,66.719,25.35,66.656,25.205,66.641z M26.681,79.613l0.088-0.527c0.47,0.32,0.934,0.483,1.384,0.483   c0.092,0,0.184-0.007,0.275-0.021c0.141-0.021,0.266-0.06,0.383-0.104l0.042,0.926L26.681,79.613z M48.898,67.828   c-0.1,1.346-1.204,2.617-2.326,3.803c-0.895,0.837-12.112,2.255-15.394,2.57c-0.056,0.006-0.103,0.033-0.152,0.055   c-1.574-0.817-1.698-1.599-1.668-1.918l12.152-3c0.086-0.021,0.155-0.068,0.216-0.125c0.257-0.052,0.421-0.121,0.531-0.197   l0.251-0.176c1.191-0.829,1.988-1.389,2.813-2.615c0.051,0.013,0.102,0.023,0.156,0.021c1.822-0.139,2.932-0.16,3.551-0.14   c-0.04,0.535-0.121,1.623-0.128,1.71C48.898,67.82,48.898,67.824,48.898,67.828z M66.87,28.12l-9.306,5.626   c-6.044,2.609-8.12,3.83-8.854,4.433l-1.891-3.877c1.014-0.497,3.338-1.318,9.664-2.826l9.244-4.222   c0.047-0.021,0.089-0.049,0.127-0.083c0.34-0.307,1.915-1.746,2.488-2.599c0.088,0.12,0.188,0.276,0.261,0.421   c0.122,0.24,0.413,0.337,0.655,0.224l1.631-0.772l0.477,0.498C70.781,26.051,68.396,27.436,66.87,28.12z"/><path fill="#000000" d="M37.23,15.338c0.168,0,0.329-0.038,0.482-0.095c0.003,0,0.005,0.002,0.008,0.002   c0.07,0,0.142-0.015,0.21-0.047l4.428-2.073c0.166-0.078,0.276-0.242,0.285-0.427c0.008-0.184-0.086-0.357-0.246-0.451   l-1.891-1.107L39.77,9.489c-0.072-0.162-0.225-0.272-0.4-0.291c-0.174-0.019-0.348,0.057-0.453,0.199l-2.521,3.43   c-0.033,0.045-0.051,0.095-0.068,0.146c-0.049,0.043-0.111,0.07-0.154,0.122c-0.479,0.584-0.397,1.449,0.185,1.93   C36.604,15.227,36.913,15.338,37.23,15.338z M36.939,13.726c0.073-0.087,0.18-0.138,0.293-0.138c0.062,0,0.153,0.015,0.241,0.087   c0.078,0.064,0.126,0.156,0.136,0.256c0.01,0.1-0.021,0.198-0.083,0.274c-0.114,0.137-0.29,0.256-0.537,0.053   C36.829,14.126,36.807,13.887,36.939,13.726z M38.585,13.796c-0.018-0.142-0.062-0.274-0.12-0.4l1.693-1.31l0.925,0.541   L38.585,13.796z M39.212,10.672l0.296,0.663l-1.781,1.378c-0.004-0.001-0.007-0.004-0.012-0.006L39.212,10.672z"/></g><text x="0" y="105" fill="#000000" font-size="5px" font-weight="bold" font-family="'Helvetica Neue', Helvetica, Arial-Unicode, Arial, Sans-serif">Created by Gilad Sotil</text><text x="0" y="110" fill="#000000" font-size="5px" font-weight="bold" font-family="'Helvetica Neue', Helvetica, Arial-Unicode, Arial, Sans-serif">from the Noun Project</text></svg>