<?xml version="1.0" encoding="iso-8859-1"?>
<!-- Generator: Adobe Illustrator 17.1.0, SVG Export Plug-In . SVG Version: 6.00 Build 0)  -->
<!DOCTYPE svg PUBLIC "-//W3C//DTD SVG 1.1//EN" "http://www.w3.org/Graphics/SVG/1.1/DTD/svg11.dtd">
<svg version="1.1" id="Capa_1" xmlns="http://www.w3.org/2000/svg" xmlns:xlink="http://www.w3.org/1999/xlink" x="0px" y="0px"
	 viewBox="0 0 451.129 451.129" style="enable-background:new 0 0 451.129 451.129;" xml:space="preserve">
<g>
	<path d="M359.865,169.699c-5.246-1.732-10.9,1.111-12.634,6.355c-10.318,31.201-39.274,48.844-74.894,46.29
		c-0.39-1.867-0.848-3.681-1.412-5.42c-7.665-23.64-30.619-29.508-47.214-31.864c-5.521-0.787-10.448-1.169-15.062-1.169
		c-20.022,0-33.832,7.763-42.216,23.733c-1.755,3.342-3.262,6.998-4.595,10.969c-13.779-2.492-26.277-7.862-36.267-15.849
		c-14.017-11.207-22.363-26.886-24.164-45.356v-50.843c22.347-4.372,37.218-23.504,37.218-49.495C138.626,25.593,117.444,0,91.408,0
		C65.372,0,44.19,25.593,44.19,57.051c0,25.991,14.871,45.122,37.218,49.495v99.684c0,5.523,4.478,10,10,10
		c5.25,0,9.547-4.048,9.959-9.192c3.487,4.074,7.386,7.867,11.716,11.329c12.251,9.795,27.348,16.461,43.866,19.654
		c-1.589,8.216-2.957,17.37-4.4,27.571c-5.325,37.386-3.059,58.539,7.825,73.012c0.251,0.334,0.52,0.651,0.78,0.977
		c-8.986,16.906-26.565,21.478-39.834,19.994c-17.356-1.937-37.279-14.697-41.142-44.701c-0.362-2.816-1.904-5.345-4.242-6.956
		c-2.338-1.612-5.25-2.154-8.01-1.491l-32.417,7.781c-5.37,1.289-8.679,6.687-7.39,12.058c1.289,5.37,6.688,8.682,12.058,7.39
		l22.273-5.346c7.452,28.397,28.791,48.034,56.652,51.143c2.44,0.272,4.855,0.406,7.246,0.406
		c21.154-0.002,39.989-10.485,50.71-27.91c6.152,2.905,13.445,4.93,22.098,6.147c4.635,0.652,8.838,0.969,12.85,0.969
		c0.628,0,1.23-0.03,1.844-0.046c12.91,21.399,4.845,40.708-6.739,51.213c-15.276,13.854-41.364,18.153-65.208-3.466
		c-2.102-1.907-4.919-2.826-7.741-2.539c-2.824,0.291-5.392,1.768-7.062,4.064l-19.613,26.957c-3.25,4.466-2.264,10.72,2.202,13.97
		c1.776,1.292,3.835,1.914,5.876,1.914c3.09,0,6.137-1.427,8.094-4.117l13.457-18.495c30.728,21.611,64.017,14.132,83.43-3.472
		c10.936-9.917,17.86-23.14,19.499-37.236c1.299-11.182-0.727-22.438-5.861-33.147c21.798-10.037,30.369-36.578,35.445-72.436
		c2.166-15.213,3.86-28.37,4.164-39.775c1.783,0.083,3.56,0.141,5.322,0.141c16.68,0,32.395-3.735,46.148-11.051
		c19.595-10.423,33.757-27.439,40.955-49.208C367.954,177.09,365.108,171.433,359.865,169.699z M64.19,57.051
		C64.19,36.621,76.4,20,91.408,20c15.008,0,27.218,16.621,27.218,37.051c0,18.777-10.43,30.442-27.218,30.442
		C74.62,87.493,64.19,75.829,64.19,57.051z M249.828,279.417c-6.104,43.121-15.18,56.11-29.868,58.967
		c-1.625-0.208-3.299-0.017-4.872,0.592c-1.004,0.059-2.03,0.088-3.081,0.088c-3.027,0-6.413-0.26-10.064-0.773
		c-10.024-1.41-17.172-4.003-22.04-8.029c-0.262-0.25-0.535-0.49-0.825-0.712c-1.01-0.919-1.919-1.904-2.718-2.965
		c-7.149-9.507-8.386-27.447-4.008-58.18c1.576-11.141,3.047-20.473,4.627-28.268c0.981,0.023,1.96,0.055,2.946,0.055
		c5.521,0,11.122-0.362,16.756-1.096c5.477-0.714,9.337-5.732,8.623-11.209c-0.713-5.476-5.735-9.333-11.209-8.623
		c-3.84,0.501-7.65,0.774-11.419,0.873c5.258-12.261,12.719-16.243,25.976-16.243c3.608,0,7.727,0.326,12.245,0.97
		c23.118,3.283,28.564,10.703,31.006,18.232C255.736,234.919,253.461,253.894,249.828,279.417z"/>
	<path d="M422.586,66.522c-2.029-5.136-7.834-7.656-12.975-5.627l-15.034,5.938l5.938-15.035c2.029-5.137-0.49-10.945-5.627-12.974
		c-5.141-2.032-10.946,0.491-12.975,5.627l-10.715,27.129c-1.464,3.706-0.588,7.927,2.23,10.744l5.656,5.657
		c1.911,1.912,4.469,2.93,7.073,2.93c1.234,0,2.479-0.229,3.672-0.7l27.13-10.715C422.096,77.468,424.615,71.659,422.586,66.522z"/>
	<path d="M231.074,180.973c32.018,0,58.066-26.053,58.066-58.076c0-32.013-26.049-58.057-58.066-58.057
		c-32.02,0-58.07,26.044-58.07,58.057C173.004,154.921,199.054,180.973,231.074,180.973z M231.074,84.841
		c20.99,0,38.066,17.072,38.066,38.057c0,20.995-17.076,38.076-38.066,38.076c-20.992,0-38.07-17.081-38.07-38.076
		C193.004,101.913,210.082,84.841,231.074,84.841z"/>
</g>
<g>
</g>
<g>
</g>
<g>
</g>
<g>
</g>
<g>
</g>
<g>
</g>
<g>
</g>
<g>
</g>
<g>
</g>
<g>
</g>
<g>
</g>
<g>
</g>
<g>
</g>
<g>
</g>
<g>
</g>
</svg>
